<?xml version="1.0" encoding="UTF-8"?>
<svg xmlns="http://www.w3.org/2000/svg" xmlns:xlink="http://www.w3.org/1999/xlink" width="32px" height="32px" viewBox="0 0 32 32" version="1.1">
<defs>
<filter id="alpha" filterUnits="objectBoundingBox" x="0%" y="0%" width="100%" height="100%">
  <feColorMatrix type="matrix" in="SourceGraphic" values="0 0 0 0 1 0 0 0 0 1 0 0 0 0 1 0 0 0 1 0"/>
</filter>
<mask id="mask0">
  <g filter="url(#alpha)">
<rect x="0" y="0" width="32" height="32" style="fill:rgb(0%,0%,0%);fill-opacity:0.2;stroke:none;"/>
  </g>
</mask>
<clipPath id="clip1">
  <rect x="0" y="0" width="32" height="32"/>
</clipPath>
<g id="surface5" clip-path="url(#clip1)">
<path style=" stroke:none;fill-rule:nonzero;fill:rgb(13.725491%,12.156863%,12.54902%);fill-opacity:1;" d="M 16 6 C 12.6875 6 10 8.6875 10 12 C 10 15.3125 12.6875 18 16 18 C 19.3125 18 22 15.3125 22 12 C 22 8.6875 19.3125 6 16 6 Z M 16 17 C 13.238281 17 11 14.761719 11 12 C 11 9.238281 13.238281 7 16 7 C 18.761719 7 21 9.238281 21 12 C 21 14.761719 18.761719 17 16 17 Z M 16 17 "/>
</g>
</defs>
<g id="surface1">
<path style=" stroke:none;fill-rule:nonzero;fill:rgb(22.352941%,25.882354%,25.098041%);fill-opacity:1;" d="M 16 0 C 9.371094 0 4 5.371094 4 12 C 4 14.839844 5.25 17.335938 6.636719 19.5 L 15.183594 31.578125 C 15.371094 31.84375 15.675781 32 16 32 C 16.324219 32 16.628906 31.84375 16.816406 31.578125 L 25.363281 19.5 C 26.6875 17.71875 28 14.839844 28 12 C 28 5.371094 22.628906 0 16 0 Z M 24.042969 19.5 L 24.039062 19.5 L 16 30.5 L 7.960938 19.5 L 7.957031 19.5 C 6.734375 17.734375 5 14.898438 5 12 C 5 5.925781 9.925781 1 16 1 C 22.074219 1 27 5.925781 27 12 C 27 14.898438 25.140625 17.890625 24.042969 19.5 Z M 24.042969 19.5 "/>
<path style=" stroke:none;fill-rule:nonzero;fill:rgb(22.352941%,25.882354%,25.098041%);fill-opacity:1;" d="M 16 7 C 13.238281 7 11 9.238281 11 12 C 11 14.761719 13.238281 17 16 17 C 18.761719 17 21 14.761719 21 12 C 21 9.238281 18.761719 7 16 7 Z M 16 16 C 13.789062 16 12 14.210938 12 12 C 12 9.789062 13.789062 8 16 8 C 18.210938 8 20 9.789062 20 12 C 20 14.210938 18.210938 16 16 16 Z M 16 16 "/>
<path style=" stroke:none;fill-rule:nonzero;fill:rgb(22.352941%,25.882354%,25.098041%);fill-opacity:1;" d="M 16 5 C 12.132812 5 9 8.132812 9 12 C 9 15.867188 12.132812 19 16 19 C 19.867188 19 23 15.867188 23 12 C 23 8.132812 19.867188 5 16 5 Z M 16 18 C 12.6875 18 10 15.3125 10 12 C 10 8.6875 12.6875 6 16 6 C 19.3125 6 22 8.6875 22 12 C 22 15.3125 19.3125 18 16 18 Z M 16 18 "/>
<path style=" stroke:none;fill-rule:nonzero;fill:rgb(96.862745%,42.745098%,34.117648%);fill-opacity:1;" d="M 16 6 C 12.6875 6 10 8.6875 10 12 C 10 15.3125 12.6875 18 16 18 C 19.3125 18 22 15.3125 22 12 C 22 8.6875 19.3125 6 16 6 Z M 16 17 C 13.238281 17 11 14.761719 11 12 C 11 9.238281 13.238281 7 16 7 C 18.761719 7 21 9.238281 21 12 C 21 14.761719 18.761719 17 16 17 Z M 16 17 "/>
<path style=" stroke:none;fill-rule:nonzero;fill:rgb(96.862745%,42.745098%,34.117648%);fill-opacity:1;" d="M 16 1 C 9.925781 1 5 5.925781 5 12 C 5 14.898438 6.734375 17.734375 7.957031 19.5 L 7.960938 19.5 L 16 30.5 L 24.039062 19.5 L 24.042969 19.5 C 25.140625 17.890625 27 14.898438 27 12 C 27 5.925781 22.074219 1 16 1 Z M 16 19 C 12.132812 19 9 15.867188 9 12 C 9 8.132812 12.132812 5 16 5 C 19.867188 5 23 8.132812 23 12 C 23 15.867188 19.867188 19 16 19 Z M 16 19 "/>
<use xlink:href="#surface5" mask="url(#mask0)"/>
</g>
</svg>
